<?xml version="1.0" standalone="no"?>
<svg width="15cm" height="15cm" viewBox="3 29 368 177" xmlns:xlink="http://www.w3.org/1999/xlink"
     xmlns="http://www.w3.org/2000/svg">

    <rect x="3" y="29" width="368" height="177" style="fill:rgb(0,0,0);stroke-width:0;stroke:rgb(0,0,0)"/>

    <polyline fill="none" style="stroke:rgb(100.0%,100.0%,100.0%);stroke-width:0.5" points="
35.111017,48.448027
36.108599,48.375534
37.106182,48.303041
38.103764,48.230548
39.101394,48.159722
40.101485,48.175330
41.101576,48.190939
42.101667,48.206547
43.101761,48.221830
44.101963,48.226655
45.102164,48.231481
46.102365,48.236307
47.102261,48.245954
48.095082,48.367333
49.087902,48.488713
50.080723,48.610092
51.073062,48.734596
52.056370,48.917713
53.039678,49.100830
54.022985,49.283946
55.005704,49.469887
55.980213,49.695180
56.954723,49.920474
57.929232,50.145767
58.905139,50.364297
59.889118,50.543776
60.873096,50.723254
61.857074,50.902733
62.842245,51.074644
63.833745,51.206375
64.825245,51.338106
65.816745,51.469837
66.808343,51.600826
67.800368,51.728541
68.792394,51.856257
69.784419,51.983973
70.778002,52.090073
71.778090,52.105893
72.778177,52.121712
73.778265,52.137531
74.778378,52.150116
75.778591,52.150088
76.778804,52.150060
77.779017,52.150032
78.778942,52.161058
79.777800,52.213097
80.776659,52.265135
81.775517,52.317173
82.774274,52.371026
83.772693,52.430897
84.771112,52.490769
85.769532,52.550640
86.767269,52.572287
87.762917,52.476838
88.758565,52.381390
89.754214,52.285941
90.747266,52.170583
91.734104,52.007561
92.720942,51.844539
93.707780,51.681517
94.687585,51.486387
95.652205,51.221935
96.616825,50.957484
97.581444,50.693033
98.543576,50.419960
99.500762,50.129752
100.457948,49.839545
101.415134,49.549337
102.375919,49.271853
103.343330,49.017803
104.310741,48.763753
105.278152,48.509703
106.253819,48.294111
107.240268,48.128753
108.226718,47.963395
109.213167,47.798038
110.198083,47.624004
111.181445,47.441181
112.164808,47.258358
113.148170,47.075535
114.125823,46.865749
115.098893,46.634316
116.071962,46.402883
117.045032,46.171450
118.016815,45.934719
118.987621,45.693968
119.958428,45.453218
120.929234,45.212468
121.919857,45.119892
122.919810,45.097073
123.919762,45.074254
124.919715,45.051435
125.919789,45.053497
126.919917,45.066544
127.920044,45.079591
128.920172,45.092638
129.914806,45.008106
130.907149,44.882882
131.899492,44.757658
132.891835,44.632434
133.885578,44.519091
134.879848,44.410218
135.874118,44.301345
136.868388,44.192473
137.867346,44.169451
138.867559,44.169404
139.867772,44.169357
140.867985,44.169310
141.868198,44.169300
142.868410,44.169300
143.868623,44.169300
144.868836,44.169300
145.869049,44.169300
146.869262,44.169300
147.869475,44.169300
148.869688,44.169300
149.869840,44.179193
150.869979,44.191373
151.870118,44.203552
152.870256,44.215731
153.859983,44.348602
154.847431,44.507891
155.834878,44.667181
156.822326,44.826471
157.798339,45.043662
158.772218,45.271668
159.746096,45.499674
160.719975,45.727680
161.692460,45.961542
162.664707,46.196405
163.636955,46.431269
164.609202,46.666132
165.602509,46.772454
166.598873,46.860117
167.595237,46.947779
168.591601,47.035442
169.572395,46.860614
170.551410,46.655783
171.530425,46.450953
172.509440,46.246123
173.507127,46.181918
174.505672,46.124183
175.504217,46.066448
176.502762,46.008713
177.489373,45.845569
178.475552,45.678603
179.461730,45.511637
180.447839,45.344305
181.426387,45.137255
182.404935,44.930204
183.383483,44.723154
184.362699,44.520547
185.358875,44.430775
186.355051,44.341003
187.351227,44.251231
188.347762,44.169448
189.347975,44.169410
190.348188,44.169372
191.348401,44.169334
192.348614,44.169300
193.348827,44.169300
194.349039,44.169300
195.349252,44.169300
196.349465,44.169300
197.349678,44.169300
198.349891,44.169300
199.350104,44.169300
200.350307,44.170764
201.350435,44.183777
202.350563,44.196789
203.350692,44.209802
204.349478,44.239252
205.338475,44.388621
206.327472,44.537989
207.316469,44.687357
208.304877,44.840307
209.289618,45.015552
210.274359,45.190796
211.259100,45.366041
212.244397,45.537976
213.232408,45.693726
214.220420,45.849476
215.208432,46.005227
216.196265,46.162091
217.183302,46.323908
218.170338,46.485725
219.157375,46.647542
220.140975,46.825881
221.110691,47.070987
222.080407,47.316093
223.050123,47.561198
224.007923,47.840726
224.921632,48.247619
225.835341,48.654512
226.749050,49.061405
227.650723,49.491712
228.513397,49.997894
229.376070,50.504076
230.238744,51.010258
231.122819,51.469940
232.068393,51.796000
233.013967,52.122059
233.959542,52.448119
234.913247,52.745601
235.888833,52.966186
236.864419,53.186771
237.840005,53.407356
238.811923,53.642381
239.774512,53.914131
240.737101,54.185882
241.699690,54.457632
242.656601,54.747290
243.599910,55.079848
244.543218,55.412406
245.486527,55.744964
246.413409,56.115793
247.304301,56.570477
248.195193,57.025160
249.086085,57.479844
249.931243,58.002270
250.686001,58.658598
251.440759,59.314926
252.195516,59.971254
252.938464,60.640546
253.662096,61.331040
254.385728,62.021534
255.109361,62.712028
255.930670,63.244987
256.870902,63.586146
257.811135,63.927305
258.751367,64.268464
259.708047,64.553782
260.683083,64.776785
261.658120,64.999787
262.633156,65.222790
263.573539,65.546307
264.478846,65.971566
265.384153,66.396824
266.289461,66.822082
267.173816,67.287279
268.038262,67.790429
268.902707,68.293578
269.767153,68.796728
270.646983,69.271477
271.540661,69.720658
272.434340,70.169839
273.328019,70.619021
274.150011,71.176516
274.912710,71.823599
275.675408,72.470683
276.438106,73.117766
277.173574,73.794722
277.888311,74.494420
278.603048,75.194118
279.317784,75.893815
280.074514,76.545632
280.861490,77.162961
281.648465,77.780290
282.435441,78.397619
283.206184,79.034742
283.965656,79.685609
284.725128,80.336477
285.484600,80.987344
286.168807,81.711878
286.803236,82.485135
287.437666,83.258391
288.072095,84.031647
288.682189,84.823894
289.278100,85.627210
289.874011,86.430525
290.469923,87.233841
291.224032,87.870123
292.058516,88.421541
292.892999,88.972960
293.727483,89.524378
294.662390,89.838696
295.639070,90.054384
296.615750,90.270073
297.592430,90.485762
298.552363,90.763778
299.505615,91.066661
300.458866,91.369543
301.412117,91.672425
302.280089,92.155327
303.118279,92.701095
303.956470,93.246862
304.794660,93.792630
305.655503,94.301423
306.522445,94.800258
307.389387,95.299094
308.256329,95.797930
309.141449,96.263358
310.031155,96.720358
310.920861,97.177358
311.810567,97.634359
312.766880,97.913286
313.738101,98.152358
314.709322,98.391429
315.680544,98.630501
316.669674,98.773166
317.661959,98.898843
318.654245,99.024520
319.646531,99.150198
320.639743,99.268295
321.633099,99.385210
322.626455,99.502126
323.619811,99.619041
324.619596,99.617824
325.619773,99.609387
326.619950,99.600950
327.618797,99.580184
328.597758,99.375092
329.576718,99.170000
330.555678,98.964907
331.495155,98.651720
332.375831,98.177552
333.256507,97.703384
334.137183,97.229216
334.987531,96.704180
335.823436,96.154917
336.659340,95.605654
337.506339,95.075953
338.406766,94.640458
339.307194,94.204963
340.207622,93.769468
341.126275,93.393755
342.116512,93.252839
343.106748,93.111924
344.096985,92.971008
345.062751,93.059889
346.001106,93.406177
346.939461,93.752465
347.877816,94.098753
348.771894,94.535584
349.621388,95.063586
350.470882,95.591587
351.320376,96.119589
351.973833,96.833122
352.454289,97.710383
352.934745,98.587645
353.415201,99.464907
353.598351,100.411279
353.554100,101.410513
353.509850,102.409746
353.465599,103.408980
353.513971,104.405718
353.611953,105.401120
353.709935,106.396522
353.807917,107.391925
353.912832,108.386610
354.020587,109.381001
354.128343,110.375393
354.236098,111.369784
354.569709,112.302858
354.979623,113.215215
355.389538,114.127572
355.799452,115.039930
356.276071,115.918315
356.772918,116.786399
357.269765,117.654482
357.766611,118.522566
358.143610,119.446636
358.490522,120.384760
358.837434,121.322885
359.184346,122.261010
359.352162,123.244029
359.488796,124.234866
359.625429,125.225702
359.762063,126.216539
359.909505,127.205815
360.058657,128.194845
360.207810,129.183874
360.356962,130.172904
360.469632,131.166654
360.577114,132.161075
360.684597,133.155496
360.792079,134.149917
360.482837,135.095233
360.147149,136.037432
359.811461,136.979631
359.456618,137.911980
358.885536,138.733132
358.314453,139.554284
357.743371,140.375436
357.175852,141.198969
356.635923,142.040932
356.095993,142.882895
355.556063,143.724858
355.021777,144.570248
354.523664,145.437606
354.025552,146.304964
353.527439,147.172321
353.013061,148.028851
352.405025,148.823029
351.796990,149.617206
351.188954,150.411384
350.584632,151.208320
350.000222,152.020041
349.415812,152.831761
348.831402,153.643482
348.263399,154.465625
347.777031,155.339622
347.290662,156.213620
346.804293,157.087617
346.323668,157.964673
345.869911,158.856037
345.416154,159.747401
344.962397,160.638766
344.504896,161.528170
344.030831,162.408902
343.556766,163.289633
343.082701,164.170365
342.606376,165.049861
342.120936,165.924374
341.635497,166.798888
341.150057,167.673402
340.698707,168.563038
340.376189,169.509826
340.053672,170.456615
339.731155,171.403403
339.400864,172.347382
339.043502,173.281576
338.686141,174.215770
338.328780,175.149964
337.917631,176.055459
337.340607,176.872447
336.763583,177.689434
336.186559,178.506422
335.556242,179.275252
334.801688,179.931814
334.047135,180.588377
333.292581,181.244939
332.509420,181.863053
331.663725,182.397119
330.818030,182.931184
329.972336,183.465250
329.163106,184.047007
328.426036,184.723138
327.688966,185.399269
326.951896,186.075400
326.236519,186.773184
325.561795,187.511543
324.887072,188.249901
324.212348,188.988260
323.457825,189.624249
322.577125,190.098374
321.696426,190.572498
320.815726,191.046622
319.965731,191.569733
319.155139,192.155708
318.344547,192.741682
317.533954,193.327656
316.690410,193.860742
315.807157,194.330092
314.923904,194.799442
314.040651,195.268792
313.098394,195.528252
312.099960,195.587873
311.101525,195.647494
310.103091,195.707115
309.107016,195.675893
308.113022,195.564526
307.119029,195.453160
306.125035,195.341793
305.179194,195.060281
304.274257,194.634237
303.369319,194.208192
302.464382,193.782147
301.784949,193.079879
301.186416,192.278515
300.587883,191.477151
299.989350,190.675787
300.076170,189.682266
300.170842,188.686543
300.265513,187.690821
300.361876,186.695299
300.502219,185.704981
300.642561,184.714663
300.782904,183.724345
300.911446,182.733407
300.875587,181.733837
300.839729,180.734267
300.803871,179.734698
300.759849,178.735761
300.641047,177.742629
300.522245,176.749497
300.403443,175.756364
300.294614,174.762311
300.229572,173.764215
300.164530,172.766120
300.099488,171.768024
300.174242,170.784170
300.439219,169.819694
300.704196,168.855218
300.969173,167.890743
301.384970,166.998563
301.970888,166.187930
302.556807,165.377297
303.142725,164.566665
303.717247,163.748038
304.279982,162.921143
304.842717,162.094248
305.405452,161.267353
306.041863,160.499926
306.731387,159.775370
307.420912,159.050814
308.110437,158.326258
308.740950,157.551720
309.342153,156.752357
309.943356,155.952995
310.544560,155.153633
311.058994,154.298401
311.537888,153.420286
312.016783,152.542171
312.495678,151.664056
312.839515,150.728466
313.140275,149.774543
313.441034,148.820619
313.741793,147.866696
313.812088,146.877117
313.813660,145.876905
313.815232,144.876693
313.816805,143.876482
313.706196,142.884003
313.567397,141.893467
313.428599,140.902932
313.289801,139.912396
313.163227,138.920243
313.039552,137.927705
312.915876,136.935168
312.792200,135.942631
312.265369,135.114033
311.661274,134.316853
311.057180,133.519673
310.412679,132.780570
309.455212,132.491288
308.497746,132.202007
307.540279,131.912726
306.582997,131.622840
305.626964,131.328855
304.670931,131.034871
303.714898,130.740886
302.771480,130.417529
301.899995,129.926672
301.028511,129.435815
300.157026,128.944959
299.272505,128.483588
298.322937,128.169349
297.373369,127.855111
296.423801,127.540872
295.463480,127.285720
294.464085,127.245294
293.464689,127.204868
292.465293,127.164442
291.465918,127.123526
290.466602,127.081179
289.467286,127.038831
288.467970,126.996484
287.468045,126.981760
286.467833,126.980008
285.467622,126.978256
284.467411,126.976503
283.471677,126.897553
282.477972,126.783648
281.484266,126.669742
280.490560,126.555837
279.529434,126.296038
278.581672,125.976391
277.633911,125.656744
276.686150,125.337097
275.733213,125.033401
274.778320,124.735734
273.823427,124.438068
272.868534,124.140402
271.879936,124.049934
270.879930,124.029594
269.879924,124.009254
268.879918,123.988914
267.880128,123.960179
266.880399,123.929083
265.880669,123.897986
264.880940,123.866890
263.880886,123.850825
262.880746,123.838774
261.880606,123.826723
260.880465,123.814672
259.913429,123.584629
258.954799,123.299227
257.996168,123.013826
257.037538,122.728424
256.045881,122.638927
255.046666,122.594256
254.047451,122.549585
253.048236,122.504914
252.082912,122.752640
251.120407,123.024687
250.157902,123.296734
249.182690,123.424615
248.187439,123.325114
247.192188,123.225613
246.196936,123.126111
245.241525,122.836225
244.289886,122.528315
243.338247,122.220406
242.385845,121.915262
241.410873,121.691978
240.435901,121.468693
239.460930,121.245409
238.484825,121.030623
237.485409,120.990702
236.485993,120.950781
235.486577,120.910860
234.487105,120.873891
233.486892,120.875180
232.486680,120.876468
231.486468,120.877757
230.487111,120.867297
229.497620,120.721238
228.508129,120.575180
227.518638,120.429121
226.527886,120.298373
225.527831,120.280600
224.527776,120.262828
223.527721,120.245056
222.529897,120.256720
221.543938,120.424981
220.557980,120.593241
219.572021,120.761502
218.583053,120.894666
217.582842,120.896746
216.582631,120.898827
215.582421,120.900907
214.584300,120.932780
213.593596,121.070370
212.602892,121.207960
211.612187,121.345549
210.631465,121.525485
209.683618,121.844875
208.735770,122.164266
207.787922,122.483657
206.836966,122.793165
205.876952,123.073878
204.916939,123.354591
203.956925,123.635304
202.983457,123.827726
201.983406,123.845719
200.983355,123.863711
199.983304,123.881704
198.983316,123.902547
197.983447,123.928798
196.983579,123.955049
195.983711,123.981300
194.983875,123.987443
193.984097,123.957962
192.984318,123.928481
191.984540,123.899000
190.987670,123.928374
189.995670,124.056288
189.003670,124.184202
188.011671,124.312116
187.038878,124.520494
186.096055,124.854427
185.153232,125.188359
184.210409,125.522291
183.281547,125.890619
182.372699,126.308257
181.463851,126.725894
180.555003,127.143532
179.643915,127.556211
178.729782,127.962150
177.815649,128.368090
176.901516,128.774029
175.999390,129.204840
175.112956,129.668154
174.226522,130.131468
173.340087,130.594782
172.442483,131.035158
171.531133,131.447309
170.619784,131.859460
169.708435,132.271611
168.779631,132.639089
167.830277,132.953974
166.880923,133.268860
165.931569,133.583745
164.983654,133.902902
164.037316,134.226739
163.090979,134.550576
162.144641,134.874414
161.217396,135.245755
160.310173,135.666911
159.402951,136.088068
158.495728,136.509225
157.583026,136.918151
156.664853,137.314868
155.746680,137.711584
154.828506,138.108300
153.916136,138.517979
153.008626,138.938516
152.101116,139.359053
151.193605,139.779589
150.284433,140.196505
149.373923,140.610507
148.463413,141.024508
147.552903,141.438509
146.636197,141.838377
145.714754,142.227437
144.793310,142.616497
143.871866,143.005556
142.907554,143.239759
141.917213,143.379937
140.926871,143.520114
139.936530,143.660292
138.940145,143.738140
137.941321,143.790819
136.942496,143.843498
135.943671,143.896177
134.943871,143.904203
133.943698,143.895230
132.943525,143.886258
131.943353,143.877286
130.981986,143.639485
130.034775,143.318210
129.087564,142.996935
128.140354,142.675660
127.409195,142.008818
126.705552,141.297964
126.001910,140.587111
125.298267,139.876257
124.767160,139.031363
124.252337,138.173819
123.737514,137.316274
123.222691,136.458729
122.925260,135.504783
122.635314,134.547517
122.345367,133.590252
122.066630,132.630879
121.989161,131.633671
121.911692,130.636463
121.834223,129.639255
121.788591,128.647473
122.192018,127.732228
122.595445,126.816984
122.998872,125.901739
123.390538,124.981759
123.733959,124.042351
124.077380,123.102942
124.420801,122.163534
124.794475,121.237111
125.238844,120.341029
125.683213,119.444948
126.127582,118.548867
126.627136,117.684935
127.187491,116.856425
127.747846,116.027916
128.308201,115.199407
128.984241,114.462367
129.661178,113.726036
130.338114,112.989706
131.102275,112.353931
131.926861,111.787820
132.751448,111.221708
133.576035,110.655596
134.494406,110.293360
135.460832,110.035588
136.427258,109.777815
137.393684,109.520043
138.326016,109.163220
139.246349,108.771542
140.166683,108.379864
141.087017,107.988186
141.923225,107.447955
142.732501,106.860164
143.541777,106.272373
144.351053,105.684582
145.207449,105.169155
146.072356,104.666799
146.937264,104.164444
147.737924,103.579610
148.436674,102.863946
149.135423,102.148282
149.834173,101.432618
150.213878,100.572957
150.288318,99.575518
150.362757,98.578080
150.437196,97.580641
150.179274,96.667568
149.638123,95.826389
149.096971,94.985211
148.555820,94.144033
147.847467,93.468337
147.011928,92.918518
146.176389,92.368699
145.340850,91.818881
144.405859,91.534040
143.414895,91.398336
142.423931,91.262631
141.432967,91.126926
140.456021,91.245998
139.485928,91.489605
138.515835,91.733213
137.545741,91.976820
136.554435,92.092917
135.557721,92.176509
134.561008,92.260101
133.563974,92.338457
132.564505,92.377046
131.565037,92.415635
130.565569,92.454223
129.568958,92.522105
128.580867,92.677355
127.592776,92.832605
126.604685,92.987854
125.618186,93.152361
124.634992,93.336087
123.651798,93.519813
122.668604,93.703539
121.676878,93.815290
120.677978,93.866531
119.679079,93.917773
118.680180,93.969015
117.681988,93.950247
116.684327,93.878833
115.686667,93.807419
114.689007,93.736005
113.696233,93.619952
112.706748,93.473855
111.717262,93.327757
110.727777,93.181660
109.732414,93.151922
108.733243,93.197572
107.734073,93.243221
106.734902,93.288871
105.744487,93.415061
104.758849,93.585185
103.773210,93.755310
102.787572,93.925435
101.804893,94.111554
100.823652,94.305438
99.842410,94.499322
98.861169,94.693206
97.876845,94.870574
96.891734,95.043731
95.906624,95.216888
94.921514,95.390045
93.966547,95.681646
93.018511,96.000477
92.070475,96.319308
91.108297,96.533238
90.109676,96.476841
89.111054,96.420444
88.112432,96.364046
87.113479,96.377597
86.114366,96.424506
85.115254,96.471415
84.116142,96.518323
83.117122,96.488333
82.118125,96.439031
81.119128,96.389729
80.120137,96.340326
79.123169,96.259826
78.126201,96.179325
77.129233,96.098824
76.132149,96.021613
75.131991,96.032030
74.131832,96.042447
73.131673,96.052864
72.131512,96.062593
71.131304,96.059660
70.131095,96.056726
69.130886,96.053793
68.130792,96.054757
67.132460,96.116067
66.134128,96.177378
65.135796,96.238688
64.138379,96.308608
63.149460,96.458494
62.160541,96.608380
61.171623,96.758265
60.180778,96.888776
59.181705,96.936503
58.182631,96.984230
57.183558,97.031957
56.184263,97.072549
55.184152,97.086791
54.184040,97.101033
53.183929,97.115275
52.183896,97.117132
51.184050,97.090078
50.184203,97.063024
49.184356,97.035970
48.184368,97.018011
47.184163,97.014185
46.183957,97.010359
45.183752,97.006533
44.183645,97.013257
43.183687,97.035829
42.183729,97.058401
41.183771,97.080973
40.185046,97.130154
39.187288,97.200192
38.189531,97.270231
37.192888,97.272100
36.197953,97.169477
35.203019,97.066853
34.208085,96.964230
33.211158,96.915778
32.211372,96.945010
31.211586,96.974242
30.211801,97.003474
29.232749,96.825238
28.258523,96.598722
27.284297,96.372207
26.315046,96.129111
25.377042,95.781873
24.439038,95.434636
23.501034,95.087398
22.572455,94.719453
21.694586,94.240109
20.816716,93.760766
19.938846,93.281422
19.107122,92.741493
18.411755,92.022543
17.716387,91.303592
17.021019,90.584642
16.367745,89.832324
15.826460,88.991232
15.285175,88.150140
14.743889,87.309048
14.293071,86.428731
14.049104,85.458728
13.805137,84.488725
13.561170,83.518722
13.591984,82.567535
13.965898,81.639842
14.339813,80.712150
14.713727,79.784457
15.201557,78.914392
15.727375,78.063545
16.253194,77.212698
16.779013,76.361851
17.315486,75.517712
17.855344,74.675703
18.395202,73.833694
18.935060,72.991685
19.306835,72.068577
19.629957,71.121995
19.953080,70.175413
20.276202,69.228831
20.513483,68.258234
20.728449,67.281394
20.943415,66.304555
21.158381,65.327715
21.388002,64.354244
21.621059,63.381562
21.854116,62.408880
22.087173,61.436198
22.333102,60.466710
22.581854,59.497923
22.830606,58.529136
23.079358,57.560349
23.486382,56.649911
23.925996,55.751487
24.365611,54.853064
24.805226,53.954641
25.479458,53.224858
26.190939,52.521849
26.902419,51.818841
27.613900,51.115833
28.502634,50.669854
29.412607,50.254673
30.322580,49.839492
31.232553,49.424310
32.198356,49.169300
33.169243,48.928876
34.140130,48.688451
35.111017,48.448027"/>

    <line x1="8.0" y1="39.0" x2="8.0" y2="35.0" style="stroke:rgb(100.0%,100.0%,100.0%);stroke-width:1.0"/>
    <line x1="82.0" y1="39.0" x2="82.0" y2="35.0" style="stroke:rgb(100.0%,100.0%,100.0%);stroke-width:1.0"/>
    <line x1="8.0" y1="37.0" x2="82.0" y2="37.0" style="stroke:rgb(100.0%,100.0%,100.0%);stroke-width:1.0"/>

    <text x="37.0" y="35.0"
          style="font-family: Courier;font-size: 6.0;fill: rgb(100.0%,100.0%,100.0%);letter-spacing: 0.0;text-anchor: start">
        37&#x3BC;m
    </text>
</svg>
